<?xml version="1.0" standalone="no"?>
<!DOCTYPE svg PUBLIC "-//W3C//DTD SVG 20010904//EN" "http://www.w3.org/TR/2001/REC-SVG-20010904/DTD/svg10.dtd">
<svg version="1.0" xmlns="http://www.w3.org/2000/svg" width="512.000000pt" height="512.000000pt"
    viewBox="0 0 512.000000 512.000000" preserveAspectRatio="xMidYMid meet" symbol id="email">

    <g transform="translate(0.000000,512.000000) scale(0.100000,-0.100000)" fill="#000000" stroke="none">
        <path d="M2779 4713 c-9 -2 -112 -110 -229 -240 l-213 -235 146 -530 c81 -292
148 -531 149 -532 2 -2 138 -44 304 -94 248 -76 306 -91 327 -83 29 11 47 39
47 71 0 16 -338 1261 -426 1568 -12 40 -22 56 -44 67 -30 15 -33 16 -61 8z" />
        <path d="M508 3056 c-333 -292 -305 -266 -280 -259 26 6 40 -1 325 -178 l242
-150 3 211 c1 115 1 304 0 418 l-3 209 -287 -251z" />
        <path d="M4320 2892 c0 -232 2 -422 4 -422 3 0 114 68 247 151 286 177 295
182 322 175 19 -5 19 -3 -4 18 -13 13 -134 119 -269 236 -135 117 -257 225
-272 238 l-28 26 0 -422z" />
        <path d="M2506 3141 c-58 -17 -59 -18 -71 -64 -14 -55 -35 -82 -76 -96 -28
-10 -30 -8 -54 39 -14 28 -31 50 -37 50 -6 0 -88 -21 -182 -46 -165 -45 -173
-46 -278 -42 l-107 6 162 -322 c132 -261 167 -323 189 -334 25 -12 50 -7 245
47 229 63 253 75 253 127 0 13 -33 91 -74 172 l-74 148 44 24 c102 53 149 145
145 278 -1 37 -3 37 -85 13z" />
        <path d="M2525 2068 c-11 -6 -110 -86 -220 -177 -110 -90 -220 -181 -245 -201
-25 -20 -462 -382 -973 -804 -762 -630 -927 -771 -927 -791 0 -37 19 -72 47
-84 35 -16 4672 -16 4707 0 28 13 49 56 44 90 -2 16 -243 221 -853 727 -467
387 -906 749 -975 805 -69 56 -213 174 -320 263 -237 196 -240 198 -285 172z" />
    </g>
</svg>